<svg xmlns="http://www.w3.org/2000/svg" width="16" height="16"
 fill="currentColor" class="bi bi-back" viewBox="0 0 16 16"> 
 <path d="M0 2a2 2 0 0 1 2-2h8a2 2 0 0 1 2 2v2h2a2 2 0 0 1 2 2v8a2
  2 0 0 1-2 2H6a2 2 0 0 1-2-2v-2H2a2 2 0 0 1-2-2V2zm2-1a1
   1 0 0 0-1 1v8a1 1 0 0 0 1 1h8a1 1 0 0 0 1-1V2a1
    1 0 0 0-1-1H2z"/>
 </svg>
polygon(50% 0%,100% 25%,100% 75%,50% 100%,0% 25%)

<svg xmlns="http://www.w3.org/2000/svg" 
width="16" height="16" fill="currentColor" class="bi bi-triangle" viewBox="0 0 16 16"> <path d="M7.938 2.016A.13.13 0 0 1 8.002 2a.13.13 0 0 1 .063.016.146.146 0 0 1 .054.057l6.857 11.667c.036.06.035.124.002.183a.163.163 0 0 1-.054.06.116.116 0 0 1-.066.017H1.146a.115.115 0 0 1-.066-.017.163.163 0 0 1-.054-.06.176.176 0 0 1 .002-.183L7.884 2.073a.147.147 0 0 1 .054-.057zm1.044-.45a1.13 1.13 0 0 0-1.96 0L.165 13.233c-.457.778.091 1.767.98 1.767h13.713c.
889 0 1.438-.99.98-1.767L8.982 1.566z"/> </svg>















